<svg width="101" height="101" viewBox="0 0 101 101" fill="none" xmlns="http://www.w3.org/2000/svg">
<g clip-path="url(#clip0_17_1209)">
<path d="M62.8149 16.2H78.5186C79.3515 16.2 80.1504 16.5309 80.7394 17.1199C81.3284 17.7089 81.6593 18.5077 81.6593 19.3407V85.2963C81.6593 86.1293 81.3284 86.9281 80.7394 87.5171C80.1504 88.1061 79.3515 88.437 78.5186 88.437H21.9852C21.1522 88.437 20.3534 88.1061 19.7644 87.5171C19.1754 86.9281 18.8445 86.1293 18.8445 85.2963V19.3407C18.8445 18.5077 19.1754 17.7089 19.7644 17.1199C20.3534 16.5309 21.1522 16.2 21.9852 16.2H37.6889" stroke="#1BB8D5" stroke-width="7.97649"/>
<path d="M34.5482 28.7629V25.6222C34.5482 21.4573 36.2027 17.463 39.1477 14.518C42.0927 11.573 46.087 9.91846 50.2519 9.91846C54.4168 9.91846 58.4111 11.573 61.3561 14.518C64.3011 17.463 65.9556 21.4573 65.9556 25.6222V28.7629H34.5482Z" stroke="#1BB8D5" stroke-width="7.97649"/>
</g>
<defs>
<clipPath id="clip0_17_1209">
<rect width="100.504" height="100.504" fill="white" transform="translate(0 0.496216)"/>
</clipPath>
</defs>
</svg>
