<svg width="453" height="151" viewBox="0 0 453 151" fill="none" xmlns="http://www.w3.org/2000/svg">
<g clip-path="url(#clip0_19_1694)">
<path d="M323.699 0L167.943 151H182.805L323.699 14.4084V0Z" fill="#1BB8D5"/>
<path d="M29.1299 37.462L25.563 40.0555C23.185 36.5975 19.6181 34.8685 15.7539 34.8685C11.8898 34.8685 8.02559 36.8857 8.02559 40.92C8.02559 44.6662 10.998 46.107 14.8622 47.8361L19.6181 50.1414C25.8602 53.0231 29.7244 56.1929 29.7244 61.6681C29.7244 68.5841 23.7795 73.1948 15.7539 73.1948C8.91732 73.1948 3.26969 69.7368 0 64.2616L3.86417 61.6681C6.53937 65.4143 10.4035 68.8723 15.7539 68.8723C20.8071 68.8723 24.374 66.2788 24.374 61.9563C24.374 58.2101 21.4016 56.4811 17.2402 54.7521L12.4843 52.4467C7.4311 50.1414 2.6752 47.2597 2.6752 41.2082C2.6752 34.5803 8.62008 30.2578 15.7539 30.2578C21.6988 30.2578 26.4547 33.4277 29.1299 37.462Z" fill="#181716"/>
<path d="M76.9862 39.191L73.1221 42.0727C69.8524 37.462 65.0965 34.8685 59.1516 34.8685C49.3425 34.8685 41.9114 42.0727 41.9114 51.8704C41.9114 61.6681 49.3425 68.8723 59.1516 68.8723C65.0965 68.8723 69.8524 65.9906 73.1221 61.6681L76.9862 64.5498C73.4193 69.7368 66.8799 73.483 59.1516 73.483C46.6673 73.483 36.8583 64.2616 36.8583 51.8704C36.8583 39.7674 46.6673 30.2578 59.1516 30.2578C67.1772 30.2578 73.4193 34.004 76.9862 39.191Z" fill="#181716"/>
<path d="M120.681 72.9064H115.331V52.7347H91.2539V72.9064H86.2008V31.1221H91.2539V48.124H115.331V31.1221H120.681V72.9064Z" fill="#181716"/>
<path d="M192.911 31.1223L176.563 73.483H174.78L161.106 40.3437L147.73 73.483H145.65L129.301 31.1223H134.949L146.839 62.8208L160.215 30.2578H162.295L175.671 62.8208L187.561 31.1223H192.911Z" fill="#181716"/>
<path d="M229.472 35.4446H206.882V48.124H224.122V52.7347H206.882V68.2957H230.364V72.9064H201.829V31.1221H229.472V35.4446Z" fill="#181716"/>
<path d="M285.057 31.1221H290.11V72.9064H285.057V31.1221ZM318.348 72.9064H311.809L290.705 50.4293L310.026 31.1221H316.565L297.244 50.4293L318.348 72.9064Z" fill="#181716"/>
<path d="M50.2343 115.267C50.2343 122.471 44.2894 127.658 35.9665 127.658H21.1043H16.9429V85.874H25.563H32.3996C40.4252 85.874 46.0728 90.4847 46.0728 97.4007C46.0728 100.571 44.8839 103.164 42.8032 104.893C47.5591 106.622 50.2343 110.368 50.2343 115.267ZM25.563 93.3664V102.876H31.5079C35.0748 102.876 37.1555 100.859 37.1555 97.9771C37.1555 95.0954 35.0748 93.3664 31.5079 93.3664H25.563ZM41.6142 114.979C41.6142 111.809 39.2362 109.792 35.372 109.792H25.563V120.166H35.6693C39.2362 120.166 41.6142 118.437 41.6142 114.979Z" fill="#181716"/>
<path d="M82.3366 122.183H64.7992L62.4213 127.659H52.9095L72.2303 85.2979H75.2028L94.2264 127.659H84.7146L82.3366 122.183ZM73.4193 101.147L67.7717 115.267H79.0669L73.4193 101.147Z" fill="#181716"/>
<path d="M134.354 110.368C134.354 121.607 126.626 128.523 116.222 128.523C105.819 128.523 98.0905 121.607 98.0905 110.368V85.874H107.008V110.945C107.008 117.284 111.169 120.454 116.52 120.454C121.87 120.454 126.031 117.284 126.031 110.945V85.874H134.949V110.368H134.354Z" fill="#181716"/>
<path d="M175.671 99.4179C175.671 107.487 169.132 112.962 160.215 112.962H152.783V127.658H143.866V85.874H159.917C169.132 85.874 175.671 91.061 175.671 99.4179ZM152.783 93.3664V105.469H160.215C164.376 105.469 166.754 102.876 166.754 99.4179C166.754 95.9599 164.376 93.3664 160.215 93.3664H152.783Z" fill="#181716"/>
<path d="M255.035 122.183L226.5 121.895L220.852 127.37H210.746L254.441 85.0098H263.656V127.37H255.035V122.183ZM255.035 94.5193L233.634 115.267H255.035V94.5193Z" fill="#181716"/>
<path d="M310.026 85.8743V128.235H307.053L282.085 102.588V127.659H273.465V85.0098H276.14L301.108 110.657V85.8743H310.026Z" fill="#181716"/>
<path d="M355.801 110.368C355.801 121.607 348.073 128.523 337.669 128.523C327.266 128.523 319.537 121.607 319.537 110.368V85.874H328.455V110.945C328.455 117.284 332.616 120.454 337.967 120.454C343.317 120.454 347.478 117.284 347.478 110.945V85.874H356.396V110.368H355.801Z" fill="#181716"/>
<path d="M402.171 85.8743V128.235H399.199L374.23 102.588V127.659H365.313V85.0098H368.285L393.254 110.657V85.8743H402.171Z" fill="#181716"/>
<path d="M450.622 94.2311L444.38 99.13C441.408 95.3838 437.543 93.0785 432.49 93.0785C424.167 93.0785 418.52 98.8418 418.52 106.911C418.52 114.979 424.167 120.743 432.787 120.743C437.841 120.743 441.705 118.725 444.083 115.556V112.098H432.193V104.605H453V116.996C449.136 123.624 441.705 128.235 432.49 128.235C419.709 128.235 409.602 119.014 409.602 106.622C409.602 94.2311 419.709 85.0098 432.49 85.0098C440.219 85.0098 446.461 88.4678 450.622 94.2311Z" fill="#181716"/>
<path d="M273.167 45.2423V31.1221H268.114V50.1412L273.167 45.2423Z" fill="#181716"/>
<path d="M262.169 55.6166L240.768 30.2578H238.984V72.9067H244.037V41.4964L258.9 59.0746L262.169 55.6166Z" fill="#181716"/>
<path d="M196.181 119.878H191.425V85.874H182.805V127.658H188.156L196.181 119.878Z" fill="#181716"/>
</g>
<defs>
<clipPath id="clip0_19_1694">
<rect width="453" height="151" fill="white"/>
</clipPath>
</defs>
</svg>
