<svg width="120" height="39" viewBox="0 0 120 39" fill="none" xmlns="http://www.w3.org/2000/svg">
<g clip-path="url(#clip0_16_981)">
<path d="M85.6805 0L44.4532 38.4769H48.3871L85.6805 3.67146V0Z" fill="#1BB8D5"/>
<path d="M7.71046 9.5458L6.76632 10.2067C6.1369 9.32551 5.19276 8.88494 4.16994 8.88494C3.14713 8.88494 2.12431 9.39894 2.12431 10.427C2.12431 11.3815 2.91109 11.7487 3.93391 12.1893L5.19276 12.7767C6.845 13.511 7.86782 14.3187 7.86782 15.7139C7.86782 17.4762 6.29425 18.651 4.16994 18.651C2.36034 18.651 0.86546 17.7699 0 16.3747L1.02282 15.7139C1.73092 16.6684 2.75374 17.5496 4.16994 17.5496C5.50747 17.5496 6.45161 16.8887 6.45161 15.7873C6.45161 14.8327 5.66483 14.3921 4.56333 13.9516L3.30448 13.3641C1.96695 12.7767 0.708103 12.0424 0.708103 10.5004C0.708103 8.81151 2.28167 7.71007 4.16994 7.71007C5.74351 7.71007 7.00236 8.51779 7.71046 9.5458Z" fill="#181716"/>
<path d="M20.3776 9.98638L19.3548 10.7207C18.4894 9.5458 17.2305 8.88494 15.657 8.88494C13.0606 8.88494 11.0936 10.7207 11.0936 13.2173C11.0936 15.7139 13.0606 17.5496 15.657 17.5496C17.2305 17.5496 18.4894 16.8153 19.3548 15.7139L20.3776 16.4482C19.4335 17.7699 17.7026 18.7245 15.657 18.7245C12.3525 18.7245 9.75609 16.3747 9.75609 13.2173C9.75609 10.1332 12.3525 7.71007 15.657 7.71007C17.7813 7.71007 19.4335 8.66465 20.3776 9.98638Z" fill="#181716"/>
<path d="M31.9433 18.5776H30.5271V13.4376H24.1542V18.5776H22.8167V7.93036H24.1542V12.2627H30.5271V7.93036H31.9433V18.5776Z" fill="#181716"/>
<path d="M51.0621 7.93036L46.7348 18.7245H46.2628L42.6436 10.2801L39.1031 18.7245H38.5523L34.225 7.93036H35.7199L38.867 16.0076L42.4075 7.71007H42.9583L46.4988 16.0076L49.6459 7.93036H51.0621Z" fill="#181716"/>
<path d="M60.7395 9.0318H54.76V12.2627H59.3233V13.4376H54.76V17.4027H60.9756V18.5776H53.4225V7.93036H60.7395V9.0318Z" fill="#181716"/>
<path d="M75.4524 7.93036H76.7899V18.5776H75.4524V7.93036ZM84.2643 18.5776H82.5334L76.9472 12.8501L82.0613 7.93036H83.7922L78.6782 12.8501L84.2643 18.5776Z" fill="#181716"/>
<path d="M13.2966 29.3717C13.2966 31.2074 11.723 32.5292 9.52005 32.5292H5.58614H4.48465V21.8819H6.76632H8.57591C10.7002 21.8819 12.1951 23.0568 12.1951 24.8191C12.1951 25.6268 11.8804 26.2877 11.3296 26.7282C12.5885 27.1688 13.2966 28.1234 13.2966 29.3717ZM6.76632 23.7911V26.2142H8.33988C9.28402 26.2142 9.83476 25.7002 9.83476 24.9659C9.83476 24.2316 9.28402 23.7911 8.33988 23.7911H6.76632ZM11.0149 29.2983C11.0149 28.4905 10.3855 27.9765 9.3627 27.9765H6.76632V30.62H9.44137C10.3855 30.62 11.0149 30.1794 11.0149 29.2983Z" fill="#181716"/>
<path d="M21.7939 31.134H17.1518L16.5224 32.5292H14.0047L19.1188 21.7351H19.9056L24.941 32.5292H22.4233L21.7939 31.134ZM19.4335 25.7737L17.9386 29.3717H20.9284L19.4335 25.7737Z" fill="#181716"/>
<path d="M35.5625 28.1234C35.5625 30.9871 33.5169 32.7494 30.7632 32.7494C28.0094 32.7494 25.9638 30.9871 25.9638 28.1234V21.8819H28.3241V28.2703C28.3241 29.8857 29.4256 30.6934 30.8418 30.6934C32.258 30.6934 33.3595 29.8857 33.3595 28.2703V21.8819H35.7199V28.1234H35.5625Z" fill="#181716"/>
<path d="M46.4988 25.3331C46.4988 27.3891 44.7679 28.7843 42.4075 28.7843H40.4406V32.5292H38.0802V21.8819H42.3288C44.7679 21.8819 46.4988 23.2036 46.4988 25.3331ZM40.4406 23.7911V26.8751H42.4075C43.509 26.8751 44.1384 26.2142 44.1384 25.3331C44.1384 24.4519 43.509 23.7911 42.4075 23.7911H40.4406Z" fill="#181716"/>
<path d="M67.5059 31.134L59.9528 31.0606L58.4579 32.4557H55.7828L67.3485 21.6616H69.7875V32.4557H67.5059V31.134ZM67.5059 24.0848L61.841 29.3717H67.5059V24.0848Z" fill="#181716"/>
<path d="M82.0613 21.8819V32.676H81.2745L74.6656 26.1408V32.5292H72.3839V21.6616H73.092L79.701 28.1968V21.8819H82.0613Z" fill="#181716"/>
<path d="M94.1777 28.1234C94.1777 30.9871 92.1321 32.7494 89.3784 32.7494C86.6246 32.7494 84.579 30.9871 84.579 28.1234V21.8819H86.9394V28.2703C86.9394 29.8857 88.0408 30.6934 89.4571 30.6934C90.8733 30.6934 91.9748 29.8857 91.9748 28.2703V21.8819H94.3351V28.1234H94.1777Z" fill="#181716"/>
<path d="M106.452 21.8819V32.676H105.665L99.0558 26.1408V32.5292H96.6955V21.6616H97.4822L104.091 28.1968V21.8819H106.452Z" fill="#181716"/>
<path d="M119.276 24.0114L117.624 25.2597C116.837 24.3051 115.814 23.7176 114.477 23.7176C112.274 23.7176 110.779 25.1862 110.779 27.2422C110.779 29.2983 112.274 30.7669 114.555 30.7669C115.893 30.7669 116.916 30.2528 117.545 29.4451V28.564H114.398V26.6548H119.906V29.8123C118.883 31.5011 116.916 32.676 114.477 32.676C111.094 32.676 108.419 30.3263 108.419 27.1688C108.419 24.0114 111.094 21.6616 114.477 21.6616C116.522 21.6616 118.175 22.5428 119.276 24.0114Z" fill="#181716"/>
<path d="M72.3052 11.5284V7.93036H70.9677V12.7767L72.3052 11.5284Z" fill="#181716"/>
<path d="M69.3941 14.1718L63.7293 7.71007H63.2572V18.5776H64.5948V10.5738L68.5287 15.053L69.3941 14.1718Z" fill="#181716"/>
<path d="M51.9276 30.5466H50.6687V21.8819H48.3871V32.5292H49.8033L51.9276 30.5466Z" fill="#181716"/>
</g>
<defs>
<clipPath id="clip0_16_981">
<rect width="119.906" height="38.4769" fill="white"/>
</clipPath>
</defs>
</svg>
