<svg width="101" height="101" viewBox="0 0 101 101" fill="none" xmlns="http://www.w3.org/2000/svg">
<g clip-path="url(#clip0_17_1214)">
<path d="M78.5186 22.4814L56.5334 44.4666" stroke="#1BB8D5" stroke-width="7.97649"/>
<path d="M29.1854 52.6875C28.8934 52.3958 28.6617 52.0494 28.5037 51.6682C28.3456 51.2869 28.2643 50.8782 28.2643 50.4654C28.2643 50.0527 28.3456 49.644 28.5037 49.2627C28.6617 48.8814 28.8934 48.5351 29.1854 48.2434L32.3262 45.1026C32.872 44.6897 33.5379 44.4663 34.2224 44.4666H40.8297C41.6627 44.4666 42.4616 44.1357 43.0506 43.5467C43.6396 42.9577 43.9705 42.1589 43.9705 41.3259V34.7735C43.9709 33.9416 44.3012 33.1439 44.8891 32.5554L65.7869 11.6576C67.3334 10.1107 69.1695 8.8835 71.1903 8.04625C73.2112 7.20901 75.3772 6.77808 77.5646 6.77808C79.7521 6.77808 81.9181 7.20901 83.9389 8.04625C85.9598 8.8835 87.7959 10.1107 89.3424 11.6576C90.8894 13.2041 92.1166 15.0403 92.9538 17.0611C93.791 19.082 94.222 21.248 94.222 23.4354C94.222 25.6229 93.791 27.7889 92.9538 29.8097C92.1166 31.8306 90.8894 33.6667 89.3424 35.2132L68.4447 56.1109C67.8562 56.6988 67.0584 57.0292 66.2266 57.0296H59.6742C58.8412 57.0296 58.0423 57.3605 57.4533 57.9495C56.8643 58.5385 56.5334 59.3374 56.5334 60.1703V66.7777C56.5337 67.4622 56.3104 68.128 55.8974 68.6739L52.7567 71.8146C52.465 72.1067 52.1186 72.3383 51.7373 72.4964C51.3561 72.6544 50.9474 72.7358 50.5346 72.7358C50.1219 72.7358 49.7132 72.6544 49.3319 72.4964C48.9506 72.3383 48.6042 72.1067 48.3125 71.8146L29.1854 52.6875Z" stroke="#1BB8D5" stroke-width="7.97649"/>
<path d="M38.7489 62.2511L6.28149 94.7185" stroke="#1BB8D5" stroke-width="7.97649"/>
</g>
<defs>
<clipPath id="clip0_17_1214">
<rect width="100.504" height="100.504" fill="white" transform="translate(0 0.496216)"/>
</clipPath>
</defs>
</svg>
