<svg width="101" height="101" viewBox="0 0 101 101" fill="none" xmlns="http://www.w3.org/2000/svg">
<g clip-path="url(#clip0_17_1197)">
<path d="M36.5779 48.7184C35.2277 45.3589 34.5386 41.7704 34.5482 38.1498C34.5482 23.0036 46.75 10.417 61.8884 9.93415C65.7555 9.80524 69.608 10.4717 73.2072 11.8921C76.8063 13.3126 80.0755 15.4569 82.8123 18.1922C85.549 20.9275 87.6951 24.1955 89.1175 27.7939C90.5399 31.3923 91.2084 35.2444 91.0816 39.1117C90.583 54.25 77.9964 66.4518 62.8502 66.4518C59.2296 66.4614 55.6411 65.7723 52.2816 64.4221L47.1112 69.5926H37.6889V79.0148H28.2667V88.437H15.7037C14.8708 88.437 14.0719 88.1061 13.4829 87.5171C12.8939 86.9281 12.563 86.1293 12.563 85.2963V74.0328C12.5634 73.2009 12.8938 72.4032 13.4817 71.8146L36.5779 48.7184Z" stroke="#1BB8D5" stroke-width="7.97649" stroke-linecap="round"/>
<path d="M70.6667 35.0444C73.2686 35.0444 75.3778 32.9352 75.3778 30.3333C75.3778 27.7314 73.2686 25.6222 70.6667 25.6222C68.0648 25.6222 65.9556 27.7314 65.9556 30.3333C65.9556 32.9352 68.0648 35.0444 70.6667 35.0444Z" fill="#1BB8D5"/>
</g>
<defs>
<clipPath id="clip0_17_1197">
<rect width="100.504" height="100.504" fill="white" transform="translate(0 0.496216)"/>
</clipPath>
</defs>
</svg>
